<svg xmlns="http://www.w3.org/2000/svg" viewBox="0 0 24 24"><path fill="#303c42" d="M24 11a3 3 0 0 0-5.59-1.48A13.37 13.37 0 0 0 12.5 8V4.1l5.51 1a2 2 0 1 0 .18-1L12.09 3a.5.5 0 0 0-.59.49V8a13.37 13.37 0 0 0-5.91 1.5 3 3 0 1 0-3.54 4.32 4.28 4.28 0 0 0-.05.68C2 18.08 6.49 21 12 21s10-2.92 10-6.5a4.28 4.28 0 0 0-.05-.67A3 3 0 0 0 24 11Zm-8.5 1a1.5 1.5 0 1 1-1.5 1.5 1.5 1.5 0 0 1 1.5-1.5Zm-7 0A1.5 1.5 0 1 1 7 13.5 1.5 1.5 0 0 1 8.5 12Zm8.19 6A12 12 0 0 1 12 19a12 12 0 0 1-4.69-1 .5.5 0 0 1 .38-1 10 10 0 0 0 8.61 0 .5.5 0 0 1 .39.92Z"/></svg>